<svg width="24" height="24" viewBox="0 0 24 24" fill="none" xmlns="http://www.w3.org/2000/svg">
<path d="M15.15 7.44332C16.108 7.99611 16.9035 8.79148 17.4565 9.74939C18.0094 10.7073 18.3004 11.794 18.3 12.9V20.1H14.547C14.361 20.627 14.0162 21.0833 13.56 21.4061C13.1038 21.7289 12.5588 21.9022 12 21.9022C11.4411 21.9022 10.8961 21.7289 10.4399 21.4061C9.98372 21.0833 9.63889 20.627 9.45295 20.1H5.69995V12.9C5.69955 11.794 5.99047 10.7073 6.54344 9.74939C7.09642 8.79148 7.89194 7.99611 8.84995 7.44332C8.70207 7.1777 8.58865 6.89432 8.51245 6.60002H5.69995V4.80002H8.51335C8.71355 4.0276 9.16457 3.34353 9.79562 2.85518C10.4267 2.36684 11.202 2.10187 12 2.10187C12.7979 2.10187 13.5732 2.36684 14.2043 2.85518C14.8353 3.34353 15.2864 4.0276 15.4866 4.80002H18.3V6.60002H15.4866C15.4101 6.89702 15.2958 7.18052 15.1509 7.44332H15.15ZM12 13.8C11.7613 13.8 11.5323 13.8948 11.3636 14.0636C11.1948 14.2324 11.1 14.4613 11.1 14.7V19.2C11.1 19.4387 11.1948 19.6676 11.3636 19.8364C11.5323 20.0052 11.7613 20.1 12 20.1C12.2386 20.1 12.4676 20.0052 12.6363 19.8364C12.8051 19.6676 12.9 19.4387 12.9 19.2V14.7C12.9 14.4613 12.8051 14.2324 12.6363 14.0636C12.4676 13.8948 12.2386 13.8 12 13.8ZM12 7.50002C12.4773 7.50002 12.9352 7.31037 13.2727 6.97281C13.6103 6.63524 13.8 6.17741 13.8 5.70002C13.8 5.22263 13.6103 4.76479 13.2727 4.42723C12.9352 4.08966 12.4773 3.90002 12 3.90002C11.5226 3.90002 11.0647 4.08966 10.7272 4.42723C10.3896 4.76479 10.2 5.22263 10.2 5.70002C10.2 6.17741 10.3896 6.63524 10.7272 6.97281C11.0647 7.31037 11.5226 7.50002 12 7.50002Z" fill="#92C23D"/>
</svg>
