<svg width="32" height="32" viewBox="0 0 32 32" fill="none" xmlns="http://www.w3.org/2000/svg">
<g clip-path="url(#clip0_269_550)">
<path d="M16.5708 15.4301L15.8425 16.0098L16.5697 16.5872C16.57 16.5876 16.5705 16.5876 16.5709 16.588C16.9461 16.8883 17.4702 16.8883 17.8457 16.588L18.5644 16.0098L17.8441 15.4289C17.4705 15.1298 16.946 15.1298 16.5708 15.4301Z" fill="#1DAF61"/>
<path d="M25.305 4.3987C25.0107 4.06599 24.5623 3.92744 24.1346 4.03676C24.119 4.04037 24.1034 4.04558 24.0886 4.05159L22.0194 4.85998C21.1282 5.08581 20.2104 5.20029 19.292 5.20029H12.708C11.7895 5.20029 10.8718 5.08581 9.98056 4.85998L7.91174 4.05159C7.89654 4.04558 7.88134 4.04037 7.86529 4.03676C7.43766 3.92786 6.98966 4.06599 6.69495 4.3987C6.39265 4.74061 6.30856 5.21789 6.47593 5.6451L7.57499 8.43658C6.54439 13.1708 6.54598 18.2685 7.57941 23.5925L6.67093 26.3551C6.51117 26.7623 6.58324 27.2256 6.85871 27.5631C7.0873 27.8446 7.41603 27.9995 7.76559 27.9995C7.83207 27.9995 7.89973 27.9943 7.96697 27.9823L10.3349 27.5795C10.4942 27.5523 10.6544 27.5286 10.8129 27.505C11.0075 27.4762 11.1997 27.4473 11.3871 27.4137C12.0954 27.286 12.7852 27.2215 13.4379 27.2215H18.5621C19.2147 27.2215 19.9046 27.286 20.6129 27.4137C20.8003 27.4473 20.9925 27.4762 21.187 27.505C21.3456 27.5286 21.5058 27.5523 21.6651 27.5795L24.0326 27.9823C24.4546 28.0556 24.869 27.8978 25.1413 27.5631C25.4168 27.2256 25.4888 26.7623 25.3367 26.376L24.4206 23.5917C25.4704 18.0991 25.4721 13.0006 24.4258 8.43419L25.5245 5.6443C25.6914 5.21794 25.6073 4.74066 25.305 4.3987ZM11.2942 20.4819L10.6777 21.0985C10.5996 21.1766 10.4971 21.2158 10.3946 21.2158C10.2921 21.2158 10.1896 21.1766 10.1115 21.0985C9.95494 20.942 9.95494 20.6889 10.1115 20.5324L10.7281 19.9158C10.5183 19.5991 10.3946 19.2207 10.3946 18.8135C10.3946 18.3106 10.5856 17.8378 10.9235 17.471C10.6885 16.8772 10.7754 16.1938 11.1942 15.6705L11.9962 14.6691V13.6085C11.9962 13.3871 12.1755 13.2081 12.3965 13.2081C12.6175 13.2081 12.7969 13.3871 12.7969 13.6085V14.6683L13.6021 15.6697C13.9753 16.1361 14.0826 16.7291 13.9372 17.2728C14.4809 17.1275 15.0739 17.2348 15.5396 17.6071L16.5413 18.4131H17.6015C17.8225 18.4131 18.0019 18.5921 18.0019 18.8135C18.0019 19.0349 17.8225 19.2139 17.6015 19.2139H16.5409L15.5395 20.0159C15.2048 20.2837 14.8032 20.4179 14.402 20.4179C14.1766 20.4179 13.9524 20.371 13.739 20.2865C13.3722 20.6241 12.899 20.8155 12.3965 20.8155C11.9893 20.8154 11.6105 20.6917 11.2942 20.4819ZM18.4023 23.2177C18.4023 23.4392 18.2229 23.6181 18.0019 23.6181H13.9981C13.7771 23.6181 13.5977 23.4392 13.5977 23.2177C13.5977 22.9963 13.7771 22.8174 13.9981 22.8174H18.0019C18.2229 22.8174 18.4023 22.9963 18.4023 23.2177ZM18.8027 25.2197H13.1972C12.9762 25.2197 12.7969 25.0407 12.7969 24.8193C12.7969 24.5979 12.9762 24.419 13.1972 24.419H18.8027C19.0237 24.419 19.2031 24.5979 19.2031 24.8193C19.2031 25.0407 19.0237 25.2197 18.8027 25.2197ZM20.4042 16.4111H19.344L18.3462 17.2127C18.0111 17.481 17.6091 17.6151 17.208 17.6151C16.8072 17.6151 16.4064 17.4814 16.0716 17.2143L14.9501 16.3242C14.9381 16.3146 14.9325 16.2994 14.9217 16.2886C14.9105 16.2774 14.8953 16.2718 14.8853 16.2594L13.9988 15.141C13.4639 14.4728 13.4639 13.5375 14 12.8677L14.7988 11.8667V10.8057C14.7988 10.5843 14.9782 10.4053 15.1992 10.4053C15.4202 10.4053 15.5996 10.5843 15.5996 10.8057V11.8655L16.408 12.8665C16.7811 13.3329 16.8888 13.9263 16.7431 14.47C17.2872 14.3247 17.8802 14.4324 18.3454 14.8043L19.3444 15.6103H20.4042C20.6252 15.6103 20.8046 15.7893 20.8046 16.0107C20.8046 16.2321 20.6253 16.4111 20.4042 16.4111ZM21.4881 10.288L20.7898 10.9863L20.6773 12.2283C20.5816 13.0887 19.9201 13.7501 19.0682 13.8454L17.6468 14.006C17.6316 14.008 17.6163 14.0088 17.6016 14.0088C17.4959 14.0088 17.3938 13.9668 17.3185 13.8915C17.2324 13.8054 17.19 13.6845 17.2036 13.5636L17.3649 12.1414C17.4594 11.2898 18.1209 10.6284 18.9733 10.5331L20.2237 10.4198L20.922 9.72188C21.0786 9.56535 21.3316 9.56535 21.4881 9.72188C21.6447 9.87845 21.6447 10.1315 21.4881 10.288Z" fill="#1DAF61"/>
<path d="M11.7538 17.3449C11.7622 17.3585 11.7674 17.3669 11.7742 17.3777C11.7894 17.4001 11.8022 17.4234 11.8194 17.445L12.1333 17.8398L12.3971 18.1713L12.9773 17.4454V17.445C13.2776 17.0698 13.2776 16.5461 12.9773 16.171L12.3971 15.4495L11.8194 16.171C11.5459 16.5125 11.5243 16.9762 11.7485 17.3397C11.7502 17.3417 11.7526 17.3429 11.7538 17.3449Z" fill="#1DAF61"/>
<path d="M15.7836 13.3682L15.2011 12.6467L14.6257 13.3678C14.325 13.7434 14.325 14.2671 14.6254 14.6423L15.2011 15.3686L15.7837 14.6423C16.0839 14.2671 16.0839 13.7434 15.7836 13.3682Z" fill="#1DAF61"/>
<path d="M13.7641 19.3905C13.7885 19.4097 13.8141 19.4245 13.8397 19.4405C13.8402 19.4409 13.8405 19.4418 13.841 19.4418C14.2089 19.686 14.6882 19.6716 15.0393 19.3905L15.7604 18.8127L15.0385 18.2322C14.6641 17.9323 14.1397 17.9331 13.7645 18.233L13.0386 18.8127L13.7637 19.3901C13.7641 19.3901 13.7641 19.3905 13.7641 19.3905Z" fill="#1DAF61"/>
<path d="M12.0831 19.0629L11.3805 18.1801C11.2603 18.3683 11.1951 18.5864 11.1951 18.8135C11.1951 19.4757 11.734 20.0146 12.3962 20.0146C12.6237 20.0146 12.8415 19.9494 13.0297 19.8293L12.1472 19.1266C12.1236 19.1077 12.1019 19.0865 12.0831 19.0629Z" fill="#1DAF61"/>
<path d="M18.1604 12.2305L18.0559 13.1542L18.9784 13.0497C18.9788 13.0492 18.9788 13.0492 18.9792 13.0492C19.4569 12.996 19.8276 12.6252 19.8805 12.148L19.9622 11.2479L19.0537 11.33C18.5844 11.3824 18.2137 11.7532 18.1604 12.2305Z" fill="#1DAF61"/>
</g>
<defs>
<clipPath id="clip0_269_550">
<rect width="24" height="24" fill="white" transform="translate(4 4)"/>
</clipPath>
</defs>
</svg>
