<svg width="24" height="24" viewBox="0 0 24 24" fill="none" xmlns="http://www.w3.org/2000/svg">
<path d="M12 17.4C10.5678 17.4 9.1943 16.831 8.1816 15.8184C7.1689 14.8057 6.59998 13.4321 6.59998 12C6.59998 10.5678 7.1689 9.1943 8.1816 8.1816C9.1943 7.1689 10.5678 6.59998 12 6.59998C13.4321 6.59998 14.8057 7.1689 15.8184 8.1816C16.831 9.1943 17.4 10.5678 17.4 12C17.4 13.4321 16.831 14.8057 15.8184 15.8184C14.8057 16.831 13.4321 17.4 12 17.4ZM11.1 2.09998H12.9V4.79998H11.1V2.09998ZM11.1 19.2H12.9V21.9H11.1V19.2ZM4.36348 5.63608L5.63608 4.36348L7.54498 6.27238L6.27238 7.54498L4.36348 5.63698V5.63608ZM16.455 17.7276L17.7276 16.455L19.6365 18.3639L18.3639 19.6365L16.455 17.7276ZM18.3639 4.36258L19.6365 5.63608L17.7276 7.54498L16.455 6.27238L18.3639 4.36348V4.36258ZM6.27238 16.455L7.54498 17.7276L5.63608 19.6365L4.36348 18.3639L6.27238 16.455ZM21.9 11.1V12.9H19.2V11.1H21.9ZM4.79998 11.1V12.9H2.09998V11.1H4.79998Z" fill="#16D4B3"/>
</svg>
